ply
format ascii 1.0
element vertex 6
property float x
property float y
property float z
property float opacity
property float f_dc_0
property float f_dc_1
property float f_dc_2
property float scale_0
property float scale_1
property float scale_2
property float rot_0
property float rot_1
property float rot_2
property float rot_3
end_header
0.5 0 0 3.0 1.77 -1.77 -1.77 -4.0 -1.8 -1.8 1 0 0 0
-0.5 0 0 3.0 -1.77 1.77 1.77 -4.0 -1.8 -1.8 1 0 0 0
0 -0.5 0 3.0 -1.77 1.77 -1.77 -4.0 -1.8 -1.8 0.707 0 0 0.707
0 0.5 0 3.0 1.77 -1.77 1.77 -4.0 -1.8 -1.8 0.707 0 0 0.707
0 0 -0.5 3.0 -1.77 -1.77 1.77 -4.0 -1.8 -1.8 0.707 0 0.707 0
0 0 0.5 3.0 1.77 1.77 -1.77 -4.0 -1.8 -1.8 0.707 0 0.707 0
